<?xml version="1.0" encoding="utf-8"?>
<!-- Generator: Adobe Illustrator 26.3.1, SVG Export Plug-In . SVG Version: 6.00 Build 0)  -->
<svg version="1.1" id="Layer_1" xmlns="http://www.w3.org/2000/svg" xmlns:xlink="http://www.w3.org/1999/xlink" x="0px" y="0px"
	 viewBox="0 0 622 125.4" style="enable-background:new 0 0 622 125.4;" xml:space="preserve">
<style type="text/css">
	.st0{fill:#FFFFFF;}
	.st1{fill:#C90C0F;}
</style>
<g>
	<g>
		<path class="st0" d="M69.3,0.3c31.5,3.3,56.1,29.9,56.2,62.3c0,34.6-28.1,62.7-62.7,62.7S0,97.4,0,62.7S28.1,0,62.7,0
			C64.9,0,67.1,0.1,69.3,0.3z M72.5,121.1c32.2-5.4,53.9-35.9,48.5-68.1c-4.5-26.8-26.4-46.4-52.1-49c-5.2-0.5-10.6-0.4-16,0.5
			C46.5,5.5,40.5,7.5,35,10.4c28.4,9.6,43.7,24.3,44.7,39.3c0.5,9.3-3.8,16-9.4,21.4l40.2-2.8c1.1-0.1,1.5,1.2,0.1,1.6L14.8,97.4
			c9.7,13.4,24.9,22.4,41.7,24.1C61.7,122.1,67.1,122,72.5,121.1z M46.2,64.1c5.3-19.7-0.7-40.4-15.1-51.4
			C11.6,25.1,0.3,48.3,4.4,72.5c1.3,8,4.2,15.4,8.3,21.8C28,90.1,41.4,82,46.2,64.1z"/>
		<path class="st1" d="M121,52.9c5.4,32.2-16.3,62.7-48.5,68.1c-5.4,0.9-10.8,1.1-16,0.5c-16.8-1.8-32-10.7-41.7-24.1L110.6,70
			c1.4-0.4,1-1.7-0.1-1.6l-40.2,2.8c5.7-5.5,10-12.2,9.4-21.4c-1.1-15-16.3-29.6-44.7-39.3c5.5-2.9,11.5-5,17.9-6.1
			c5.4-0.9,10.8-1.1,16-0.5C94.7,6.6,116.5,26.1,121,52.9z M4.4,72.5c1.3,8,4.2,15.4,8.3,21.8C28,90.1,41.4,82,46.2,64.1
			c5.3-19.7-0.7-40.4-15.1-51.4C11.6,25.1,0.3,48.3,4.4,72.5z"/>
	</g>
</g>
<g>
	<g>
		<path class="st0" d="M346.6,70.3h7c3.3,0,6.4,1.7,8.2,4.6l13.7,22c1.5,2.4,3.3,5.7,4.4,8h0.2c-0.2-2.2-0.2-5.3-0.2-7.5v-27h9.9
			v49.1h-12.4l-16.7-26.6c-1.5-2.4-3.2-5.4-4.3-7.6h-0.2c0.1,2.1,0.2,4.7,0.2,7v27.1h-9.9V70.3z"/>
	</g>
	<path class="st0" d="M397.8,94.9c0-13.6,7.8-25.2,23.3-25.2c15.4,0,23.3,11.2,23.3,25.2c0,13.6-7.9,25.2-23.3,25.2
		C405.6,120,397.8,108.8,397.8,94.9z M433,94.8c0-10.4-4.2-16.3-11.9-16.3c-7.7,0-11.8,5.9-11.8,16.3s4.1,16.3,11.8,16.3
		C428.8,111.1,433,105.2,433,94.8z"/>
	<path class="st0" d="M481.2,94.9c0-13.6,7.8-25.2,23.3-25.2c15.4,0,23.3,11.2,23.3,25.2c0,13.6-7.9,25.2-23.3,25.2
		C489,120,481.2,108.8,481.2,94.9z M516.4,94.8c0-10.4-4.2-16.3-11.9-16.3c-7.7,0-11.8,5.9-11.8,16.3s4.1,16.3,11.8,16.3
		C512.2,111.1,516.4,105.2,516.4,94.8z"/>
	<path class="st0" d="M450.8,119.4V70.2h5.5c3.2,0,5.8,2.6,5.8,5.8v34.4h18.1v8.8H450.8z"/>
	<path class="st0" d="M533.6,95.4c0-13.7,7.5-25.8,25.2-25.8c6.4,0,10.6,1.1,13.8,2.5v9.2c-3.9-1.8-8-2.8-13.3-2.8
		c-9.5,0-14.4,6-14.4,16.9c0,10.6,5,15.9,14,15.9c2.4,0,4-0.3,5.7-0.9v-9.7h-3.5c-2.3,0-4.1-1.9-4.1-4.1v-4l18.1,0v24.5
		c-4.3,1.5-9.3,2.9-16.6,2.9C542.4,120,533.6,110,533.6,95.4z"/>
	<g>
		<g>
			<path class="st0" d="M172.8,119.4v-40h-13.3v-9.2h38.1v4.4c0,2.6-2.1,4.8-4.8,4.8h-8.7v40H172.8z"/>
		</g>
		<path class="st0" d="M205.6,119.4V70.2h30.8v4.5c0,2.6-2.1,4.7-4.7,4.7h-14.7V90h16.5v8.2h-16.5v12h19.4v9.2H205.6z"/>
		<path class="st0" d="M244.4,95.4c0-14.1,7.6-25.8,23.7-25.8c5.9,0,9.6,1.2,12.1,2.2v9.4c-2.4-1.4-6.1-2.5-11-2.5
			c-8.7,0-13.4,5.8-13.4,16.7c0,10,5.2,15.5,13.7,15.5c4.9,0,8.4-1.2,11.2-2.9v9.6c-3.2,1.4-6.5,2.4-12.5,2.4
			C252.4,120,244.4,109.4,244.4,95.4z"/>
		<polygon class="st0" points="322.8,119.4 322.8,98.7 302.1,98.7 302.1,119.4 290.8,119.4 290.8,70.2 302.1,70.2 302.1,89.8 
			322.8,89.8 322.8,70.2 334.2,70.2 334.2,119.4 		"/>
	</g>
	<path class="st0" d="M593.9,119.4v-18.9l-16.5-30.2h9.5c1.9,0,3.6,1.1,4.5,2.8l9.1,18.1l10.1-20.9H622l-16.6,30l-0.1,19.1H593.9z"
		/>
</g>
<g>
	<g>
		<polygon class="st0" points="450,55.3 450,34.6 429.3,34.6 429.3,55.3 417.9,55.3 417.9,6.1 429.3,6.1 429.3,25.7 450,25.7 
			450,6.1 461.4,6.1 461.4,55.3 		"/>
		<path class="st0" d="M205.4,6.1v30.7c0,3.4,0.5,6.3,1.5,8.7c1,2.4,2.4,4.3,4.2,5.9c1.8,1.5,4.1,2.7,6.6,3.4
			c2.6,0.7,5.5,1.1,8.6,1.1c3.2,0,6-0.4,8.6-1.1c2.5-0.7,4.6-1.8,6.3-3.3c1.7-1.5,3-3.5,4-5.9c0.9-2.4,1.4-5.3,1.4-8.7V6.1H236v30.4
			c0,3.1-0.8,5.6-2.3,7.4c-1.6,1.9-4,2.8-7.3,2.8c-3.3,0-5.7-0.9-7.3-2.8c-1.5-1.8-2.3-4.3-2.3-7.4V6.1H205.4z"/>
		<path class="st0" d="M172.7,55.3v-40h-13.3V6.1h38.1v4.4c0,2.6-2.1,4.8-4.8,4.8H184v40H172.7z"/>
		<rect x="355.1" y="6.1" class="st0" width="11.4" height="49.1"/>
		<path class="st0" d="M317.3,32.4l0.4,0.5l14.5,18.7c1.8,2.4,4.6,3.7,7.6,3.7h9l-20.8-26.4l-0.3-0.4l0.3-0.4l17.1-21.9h-11.8
			l-15.7,21.2l-0.4,0.5l0-0.9V6.1h-11.4v49.1h11.4v-22L317.3,32.4z"/>
		<path class="st0" d="M291.1,55.2c-3.4,0-6.5-1.8-8.3-4.7L274,36h-5.6v19.2h-11.3V6.1h20.2c5.2,0,9.3,1.4,12.1,4
			c2.8,2.7,4.3,6.3,4.3,10.9c0,2.3-0.6,4.6-1.8,6.9c-1.2,2.3-3.3,4.1-6.3,5.5l-0.7,0.3l13.8,21.5H291.1z M268.4,28.6h6.6
			c2.4,0,4.2-0.7,5.4-1.9c1.2-1.3,1.8-2.9,1.8-4.9c0-2-0.6-3.7-1.7-5c-1.2-1.3-3-1.9-5.4-1.9h-6.6V28.6z"/>
		<path class="st0" d="M375.7,53.2v-9.4c3.6,1.7,8.3,3.3,13.1,3.3c5.5,0,8.3-1.9,8.3-5.5c0-4.3-3.8-4.7-11.3-8
			c-5.1-2.3-10-5.9-10-14.1c0-9.6,7.3-14.1,17.4-14.1c5.4,0,10,1.3,12.5,2.2v9.2c-2.6-1.2-7.1-2.6-11.7-2.6c-5,0-7.3,1.8-7.3,5
			c0,3.3,2.8,4.4,7.9,6.3c6.5,3.2,14,4.7,14,15.7c0,9.6-7.6,14.8-17.8,14.8C384.6,55.9,379.6,54.8,375.7,53.2z"/>
	</g>
</g>
</svg>
